# xmcd
# 
# Track frame offsets:
#     150
#     20942
#     40037
#     58522
#     88820
#     132270
#     154332
#     177075
#     200735
# 
# Disc length: 2910
# 
# Revision: 0
# Processed by: cddbd v1.5.2PL0 Copyright (c) Steve Scherf et al.
# Submitted via: fre:ac v1.0.17
# 
DISCID=7c0b5c09
DTITLE=Chris Duarte Group - Texas Sugar-Strat Magik
DYEAR=1994
DGENRE=Blues
TTITLE0=My Way Down
TTITLE1=Letter to My Girlfriend
TTITLE2=C-Butt Rock
TTITLE3=Just Kissed My Baby
TTITLE4=Shiloh
TTITLE5=Scrawl
TTITLE6=What Can I Do?
TTITLE7=Big-Legged Woman
TTITLE8=Borrowed Love
EXTD=
EXTT0=
EXTT1=
EXTT2=
EXTT3=
EXTT4=
EXTT5=
EXTT6=
EXTT7=
EXTT8=
PLAYORDER=
